<svg xmlns="http://www.w3.org/2000/svg" viewBox="0 0 600.89 583.95"><defs><style>.cls-1,.cls-5{fill:none}.cls-1,.cls-3,.cls-5{stroke:#999}.cls-1,.cls-5{stroke-linecap:round;stroke-linejoin:round}.cls-1{stroke-width:.89px}.cls-3{fill-opacity:.06;stroke-width:.18px}.cls-5{stroke-width:.44px;stroke-dasharray:5.32 5.32}</style></defs><g id="Layer_2" data-name="Layer 2"><g id="Layer_2-2" data-name="Layer 2"><path id="path4540" class="cls-1" d="M300.26.44l149.91 40.18 95 118.38 55 141.44-40 150.09-109.82 109.73-149.91 23.07-149.91-23.07L40.62 450.53.44 300.44 55.4 159l94.95-118.38z"/><path id="path4542" class="cls-1" d="M213.78 50.53L300.44.44l86.67 49.91 63.42-9.73 62.17 137.3 87.74 122.52-40.18 50.09v100l-86.66 50.09-23.25 59.64-149.91-14.77-149.91 14.77-23.24-59.82-86.67-49.91v-100L.44 300.44l87.75-122.52 62.16-137.3 63.43 9.91z"/><path id="path4544" class="cls-1" d="M300.26 127.29l86.67-76.76L512.51 178.1l47.57 172.43-109.73 36.58 23.25 113.33-173.16 45.05-173.15-45.05 23.24-113.33L40.8 350.53 88.37 178.1 214 50.53l86.3 76.76z"/><path id="path4546" d="M300.26 545.49L150.35 387.11l-62.16-209 212.25-50.63L512.7 178.1l-62.35 209z" stroke-width="3.54" stroke-linecap="round" stroke-linejoin="round" stroke="#999" fill="none"/><path id="path4548" class="cls-1" d="M213.78 50.53h173.15"/><path id="path4550" class="cls-1" d="M560.08 350.53l-86.66 149.91"/><path id="path4552" class="cls-1" d="M127.11 500.44L40.44 350.53"/><path id="path4556" class="cls-1" d="M300.26 583.51v-38"/><path id="path4558" class="cls-1" d="M55.4 159l32.79 18.92"/><path id="path4560" class="cls-1" d="M300.26 300.44l212.25-122.52"/><path id="path4562" class="cls-1" d="M300.26 545.49v-245"/><path id="path4564" class="cls-1" d="M88.19 178.1l212.25 122.52"/><path id="path4566" class="cls-1" d="M300.26 127.29v173.15"/><path id="path4568" class="cls-1" d="M450.35 387.11l-149.91-86.67"/><path id="path4570" class="cls-1" d="M150.35 387.11l149.91-86.67"/><path id="path4779" class="cls-3" d="M213.78 50.53L300.44.44l86.67 49.91z"/><path id="path4791" class="cls-3" d="M127.11 500.44L40.44 350.53v100z"/><path id="path4795" class="cls-3" d="M473.6 500.44l86.66-50.09v-100z"/><path id="path4554" class="cls-1" d="M545.31 159l-32.8 18.92"/><path id="path3755" d="M300.26 200.44l86.67 149.91H213.78z" stroke-width=".71" fill-opacity=".06" stroke-linecap="round" stroke-linejoin="round" stroke="#999"/><path id="path4705" class="cls-5" d="M300.26.44v55"/><path id="path4707" class="cls-5" d="M560.08 450.53L512.51 423"/><path id="path4709" class="cls-5" d="M40.62 450.53L88.19 423"/><path id="path4711" class="cls-5" d="M300.26 55.58v145"/><path id="path4713" class="cls-5" d="M512.51 423l-125.58-72.47"/><path id="path4715" class="cls-5" d="M88.19 423l125.59-72.44"/><path id="path4717" class="cls-5" d="M55.4 159l94.95 54.78"/><path id="path4719" class="cls-5" d="M545.31 159l-95 55"/><path id="path4721" class="cls-5" d="M300.26 583.51V473.78"/></g></g></svg>