<?xml version="1.0" standalone="no"?>
<!DOCTYPE svg PUBLIC "-//W3C//DTD SVG 20010904//EN"
 "http://www.w3.org/TR/2001/REC-SVG-20010904/DTD/svg10.dtd">
<svg version="1.0" xmlns="http://www.w3.org/2000/svg"
 width="2548.000000pt" height="2548.000000pt" viewBox="0 0 2548.000000 2548.000000"
 preserveAspectRatio="xMidYMid meet">
<metadata>
Created by potrace 1.11, written by Peter Selinger 2001-2013
</metadata>
<g transform="translate(0.000000,2548.000000) scale(0.100000,-0.100000)"
fill="#000000" stroke="none">
<path d="M7745 15764 c-616 -63 -1171 -288 -1607 -653 -872 -731 -1223 -1844
-913 -2893 96 -324 272 -659 493 -938 101 -128 374 -398 497 -491 533 -406
1168 -611 1843 -598 94 2 172 2 172 -1 0 -9 -456 -1160 -462 -1165 -2 -3 -114
274 -249 615 l-244 620 -357 0 -358 0 0 -40 0 -40 140 0 140 0 0 -600 0 -600
-140 0 -140 0 0 -40 0 -40 320 0 320 0 0 40 0 40 -140 0 -140 0 0 600 0 600
140 0 c126 0 140 2 140 18 1 18 62 -133 354 -870 l178 -448 36 0 37 0 261 663
c248 627 263 662 288 665 l26 3 0 -655 0 -656 390 0 390 0 0 40 0 40 -350 0
-350 0 0 280 0 280 340 0 340 0 0 40 0 40 -340 0 -340 0 0 280 0 280 345 0
345 0 0 40 0 40 -237 1 c-131 1 -229 3 -218 6 77 17 288 83 380 118 390 152
712 361 1005 655 432 432 703 963 795 1560 23 147 31 458 16 616 -36 381 -153
761 -333 1079 -445 785 -1206 1307 -2106 1446 -108 16 -193 22 -402 24 -146 2
-283 1 -305 -1z m650 -194 c372 -55 756 -194 1065 -385 694 -430 1152 -1147
1240 -1940 15 -134 12 -424 -5 -565 -44 -355 -176 -733 -360 -1030 -143 -230
-385 -506 -590 -670 -215 -175 -539 -358 -795 -450 -525 -190 -1106 -217
-1646 -75 -1017 266 -1802 1105 -1974 2107 -138 809 133 1633 734 2232 460
459 1045 731 1713 796 139 14 459 3 618 -20z"/>
<path d="M16705 13034 c-621 -1505 -1131 -2742 -1133 -2750 -3 -12 13 -14 93
-12 l96 3 378 895 377 895 1405 2 1404 2 382 -897 381 -897 97 -3 c79 -2 96 0
93 11 -2 8 -511 1245 -1133 2750 l-1130 2736 -90 0 -90 1 -1130 -2736z m1879
849 c362 -890 661 -1624 663 -1630 4 -10 -264 -13 -1322 -13 -1231 0 -1327 1
-1321 17 70 182 1313 3243 1317 3243 3 0 302 -728 663 -1617z"/>
<path d="M20640 12988 l0 -2718 90 0 90 0 2 2532 3 2532 1828 -2532 1828
-2532 85 0 84 0 0 2715 0 2715 -85 0 -85 0 -2 -2551 -3 -2550 -1840 2547
c-1012 1400 -1844 2548 -1850 2550 -5 1 -40 4 -77 6 l-68 4 0 -2718z"/>
<path d="M1490 12980 l0 -2710 90 0 90 0 0 2710 0 2710 -90 0 -90 0 0 -2710z"/>
<path d="M3205 14375 l-1400 -1314 0 -80 0 -80 1558 -1316 1558 -1315 125 0
c101 0 125 -3 122 -14 -2 -7 -115 -297 -253 -645 l-250 -631 -347 0 -348 0 0
280 0 280 335 0 335 0 0 40 0 40 -335 0 -335 0 0 280 0 280 345 0 345 0 0 40
0 40 -390 0 -390 0 0 -680 0 -680 423 0 422 0 86 218 87 217 313 0 313 0 89
-217 90 -218 44 0 c32 0 44 4 40 13 -3 6 -125 317 -273 689 l-267 677 -37 3
c-33 3 -210 149 -1633 1353 -878 743 -1596 1352 -1596 1355 0 3 601 570 1335
1260 733 690 1378 1296 1431 1347 l98 92 -120 0 -120 1 -1400 -1315z m2149
-4605 l135 -345 -271 -3 c-149 -1 -273 0 -276 2 -4 4 250 672 266 701 4 6 7 6
9 0 2 -6 64 -165 137 -355z"/>
<path d="M11400 12980 l0 -2710 90 0 90 0 0 1330 0 1330 1735 0 1735 0 0
-1330 0 -1330 90 0 90 0 0 2710 0 2710 -90 0 -90 0 0 -1295 0 -1295 -1735 0
-1735 0 0 1295 0 1295 -90 0 -90 0 0 -2710z"/>
<path d="M2890 9580 l0 -680 40 0 40 0 0 641 0 641 243 -4 c279 -5 306 -11
392 -90 65 -59 96 -127 103 -223 8 -133 -56 -245 -172 -305 l-69 -35 -189 -3
-189 -4 3 -34 c3 -30 33 -61 308 -309 l305 -275 58 0 c31 0 57 2 57 4 0 3
-131 123 -291 268 l-291 263 123 7 c139 7 188 21 266 74 143 98 202 318 134
496 -45 117 -165 213 -296 237 -32 6 -173 11 -317 11 l-258 0 0 -680z"/>
<path d="M5560 10220 l0 -40 225 0 225 0 0 -640 0 -640 40 0 40 0 0 640 0 640
225 0 225 0 0 40 0 40 -490 0 -490 0 0 -40z"/>
<path d="M2030 10235 c-135 -37 -274 -129 -356 -238 -265 -350 -148 -857 241
-1038 97 -45 171 -61 280 -61 106 0 182 16 271 57 153 70 275 196 339 348 l15
37 -44 0 c-45 0 -45 0 -78 -62 -68 -128 -218 -244 -364 -282 -350 -90 -702
178 -721 549 -18 336 251 625 582 625 204 0 409 -122 503 -298 33 -62 33 -62
78 -62 l44 0 -15 38 c-70 168 -231 317 -405 374 -85 28 -288 35 -370 13z"/>
</g>
</svg>
